<mxfile host="app.diagrams.net" modified="2021-02-14T04:43:42.590Z" agent="5.0 (Windows)" etag="6dt857lYCyU2dJ_LPGgI" version="14.3.1" type="github">
  <diagram id="ZQ61z_EeCx3_zK0M1VKZ" name="Page-1">
    <mxGraphModel dx="1422" dy="791" grid="1" gridSize="10" guides="1" tooltips="1" connect="1" arrows="1" fold="1" page="1" pageScale="1" pageWidth="850" pageHeight="1100" math="0" shadow="0">
      <root>
        <mxCell id="0" />
        <mxCell id="1" parent="0" />
        <mxCell id="JGMstSb0L4LKvHBXNvgH-1" value="&lt;div&gt;User&lt;/div&gt;" style="shape=umlActor;verticalLabelPosition=bottom;verticalAlign=top;html=1;outlineConnect=0;" vertex="1" parent="1">
          <mxGeometry x="130" y="50" width="30" height="60" as="geometry" />
        </mxCell>
        <mxCell id="JGMstSb0L4LKvHBXNvgH-2" value="Feature Request" style="shape=parallelogram;perimeter=parallelogramPerimeter;whiteSpace=wrap;html=1;fixedSize=1;" vertex="1" parent="1">
          <mxGeometry x="270" y="50" width="120" height="60" as="geometry" />
        </mxCell>
        <mxCell id="JGMstSb0L4LKvHBXNvgH-3" value="&lt;div&gt;Feature Request&lt;/div&gt;&lt;div&gt;Backlog&lt;br&gt;&lt;/div&gt;" style="strokeWidth=2;html=1;shape=mxgraph.flowchart.database;whiteSpace=wrap;" vertex="1" parent="1">
          <mxGeometry x="270" y="160" width="100" height="90" as="geometry" />
        </mxCell>
        <mxCell id="JGMstSb0L4LKvHBXNvgH-5" value="Backlog segregation " style="rounded=1;whiteSpace=wrap;html=1;absoluteArcSize=1;arcSize=14;strokeWidth=2;" vertex="1" parent="1">
          <mxGeometry x="460" y="155" width="100" height="100" as="geometry" />
        </mxCell>
        <mxCell id="JGMstSb0L4LKvHBXNvgH-6" value="&lt;div&gt;Open Source &lt;br&gt;&lt;/div&gt;&lt;div&gt;Dev&lt;/div&gt;" style="shape=umlActor;verticalLabelPosition=bottom;verticalAlign=top;html=1;outlineConnect=0;" vertex="1" parent="1">
          <mxGeometry x="130" y="160" width="30" height="60" as="geometry" />
        </mxCell>
        <mxCell id="JGMstSb0L4LKvHBXNvgH-9" value="&lt;div&gt;Internal&lt;/div&gt;&lt;div&gt;team&lt;br&gt;&lt;/div&gt;" style="shape=umlActor;verticalLabelPosition=bottom;verticalAlign=top;html=1;outlineConnect=0;" vertex="1" parent="1">
          <mxGeometry x="130" y="280" width="30" height="60" as="geometry" />
        </mxCell>
      </root>
    </mxGraphModel>
  </diagram>
</mxfile>
